<svg id="visual" viewBox="0 0 4000 400" width="4000" height="400" xmlns="http://www.w3.org/2000/svg" xmlns:xlink="http://www.w3.org/1999/xlink" version="1.1"><g fill="#0066ff"><path d="M0 -120.8L27.1 -37.3L114.9 -37.3L43.9 14.3L71 97.7L0 46.1L-71 97.7L-43.9 14.3L-114.9 -37.3L-27.1 -37.3Z" transform="translate(2890 261)"></path><path d="M0 -30.2L6.8 -9.3L28.7 -9.3L11 3.6L17.8 24.4L0 11.5L-17.8 24.4L-11 3.6L-28.7 -9.3L-6.8 -9.3Z" transform="translate(2154 257)"></path><path d="M0 -66.1L14.8 -20.4L62.8 -20.4L24 7.8L38.8 53.5L0 25.2L-38.8 53.5L-24 7.8L-62.8 -20.4L-14.8 -20.4Z" transform="translate(1759 11)"></path><path d="M0 -54.7L12.3 -16.9L52.1 -16.9L19.9 6.5L32.2 44.3L0 20.9L-32.2 44.3L-19.9 6.5L-52.1 -16.9L-12.3 -16.9Z" transform="translate(1410 14)"></path><path d="M0 -69.8L15.7 -21.6L66.4 -21.6L25.4 8.2L41.1 56.5L0 26.7L-41.1 56.5L-25.4 8.2L-66.4 -21.6L-15.7 -21.6Z" transform="translate(1720 355)"></path><path d="M0 -47.2L10.6 -14.6L44.9 -14.6L17.1 5.6L27.7 38.2L0 18L-27.7 38.2L-17.1 5.6L-44.9 -14.6L-10.6 -14.6Z" transform="translate(3279 315)"></path><path d="M0 -35.9L8.1 -11.1L34.1 -11.1L13 4.2L21.1 29L0 13.7L-21.1 29L-13 4.2L-34.1 -11.1L-8.1 -11.1Z" transform="translate(2526 268)"></path><path d="M0 -86.8L19.5 -26.8L82.6 -26.8L31.5 10.2L51 70.2L0 33.2L-51 70.2L-31.5 10.2L-82.6 -26.8L-19.5 -26.8Z" transform="translate(861 169)"></path><path d="M0 -38.7L8.7 -12L36.8 -12L14.1 4.6L22.7 31.3L0 14.8L-22.7 31.3L-14.1 4.6L-36.8 -12L-8.7 -12Z" transform="translate(189 80)"></path></g></svg>