<svg id="visual" viewBox="0 0 4000 300" width="4000" height="300" xmlns="http://www.w3.org/2000/svg" xmlns:xlink="http://www.w3.org/1999/xlink" version="1.1"><g fill="#0066ff"><path d="M0 -104.8L23.5 -32.4L99.6 -32.4L38.1 12.4L61.6 84.8L0 40L-61.6 84.8L-38.1 12.4L-99.6 -32.4L-23.5 -32.4Z" transform="translate(158 4)"></path><path d="M0 -26.4L5.9 -8.2L25.1 -8.2L9.6 3.1L15.5 21.4L0 10.1L-15.5 21.4L-9.6 3.1L-25.1 -8.2L-5.9 -8.2Z" transform="translate(2181 136)"></path><path d="M0 -33L7.4 -10.2L31.4 -10.2L12 3.9L19.4 26.7L0 12.6L-19.4 26.7L-12 3.9L-31.4 -10.2L-7.4 -10.2Z" transform="translate(3997 30)"></path><path d="M0 -93.4L21 -28.9L88.9 -28.9L33.9 11L54.9 75.6L0 35.7L-54.9 75.6L-33.9 11L-88.9 -28.9L-21 -28.9Z" transform="translate(2706 198)"></path><path d="M0 -42.5L9.5 -13.1L40.4 -13.1L15.4 5L25 34.4L0 16.2L-25 34.4L-15.4 5L-40.4 -13.1L-9.5 -13.1Z" transform="translate(1614 251)"></path><path d="M0 -79.3L17.8 -24.5L75.4 -24.5L28.8 9.4L46.6 64.1L0 30.3L-46.6 64.1L-28.8 9.4L-75.4 -24.5L-17.8 -24.5Z" transform="translate(742 194)"></path><path d="M0 -87.8L19.7 -27.1L83.5 -27.1L31.9 10.4L51.6 71L0 33.5L-51.6 71L-31.9 10.4L-83.5 -27.1L-19.7 -27.1Z" transform="translate(1929 5)"></path><path d="M0 -31.1L7 -9.6L29.6 -9.6L11.3 3.7L18.3 25.2L0 11.9L-18.3 25.2L-11.3 3.7L-29.6 -9.6L-7 -9.6Z" transform="translate(2440 191)"></path><path d="M0 -85.9L19.3 -26.5L81.7 -26.5L31.2 10.1L50.5 69.5L0 32.8L-50.5 69.5L-31.2 10.1L-81.7 -26.5L-19.3 -26.5Z" transform="translate(3131 20)"></path></g></svg>